<?xml version="1.0" encoding="UTF-8" standalone="no"?>
<!DOCTYPE svg PUBLIC "-//W3C//DTD SVG 1.1//EN" "http://www.w3.org/Graphics/SVG/1.1/DTD/svg11.dtd">
<svg width="100%" height="100%" viewBox="0 0 40 40" version="1.1" xmlns="http://www.w3.org/2000/svg" xmlns:xlink="http://www.w3.org/1999/xlink" xml:space="preserve" style="fill-rule:evenodd;clip-rule:evenodd;stroke-linejoin:round;stroke-miterlimit:1.41421;">
    <g id="Mesa-de-trabajo1" transform="matrix(0.382861,0,0,0.389403,-15.217,-19.3757)">
        <rect x="39.746" y="49.757" width="104.477" height="102.721" style="fill:none;"/>
        <g transform="matrix(0.745935,0,0,0.733403,23.4403,24.602)">
            <path d="M158.357,71.259C158.357,54.721 144.931,41.294 128.393,41.294L64.136,41.294C47.598,41.294 34.172,54.721 34.172,71.259L34.172,131.188C34.172,147.726 47.598,161.152 64.136,161.152L128.393,161.152C144.931,161.152 158.357,147.726 158.357,131.188L158.357,71.259Z" style="fill:url(#_Radial1);"/>
        </g>
        <g transform="matrix(2.60872,0,0,2.46432,39.8535,52.0925)">
            <path d="M20.73,23.957L20.73,18.855L15.248,18.855L15.248,21.575L10.272,17.356L15.248,13.137L15.248,16.226L20.73,16.226L20.73,10.81L17.856,10.81L22.075,5.834L26.294,10.81L23.358,10.81L23.358,16.226L28.839,16.226L28.839,13.065L33.815,17.284L28.839,21.503L28.839,18.855L23.358,18.855L23.358,23.957L26.294,23.957L22.075,28.933L17.832,24.004L20.73,23.957Z" style="fill:rgb(149,149,149);fill-opacity:0.301886;"/>
            <path d="M22.139,5.369L22.201,5.383L22.26,5.406L22.316,5.438L22.368,5.477L22.413,5.523L26.632,10.5L26.671,10.553L26.702,10.612L26.725,10.675L26.739,10.74L26.744,10.807L26.74,10.874L26.727,10.94L26.705,11.003L26.674,11.062L26.635,11.116L26.59,11.163L26.538,11.204L26.482,11.236L26.421,11.26L26.358,11.274L26.294,11.279L23.809,11.279L23.809,15.757L28.388,15.757L28.388,13.065L28.393,13L28.406,12.935L28.428,12.873L28.458,12.815L28.496,12.762L28.54,12.715L28.59,12.674L28.646,12.642L28.705,12.618L28.766,12.603L28.83,12.597L28.893,12.6L28.955,12.612L29.015,12.634L29.072,12.664L29.124,12.702L34.1,16.921L34.145,16.964L34.183,17.014L34.215,17.069L34.24,17.127L34.256,17.189L34.265,17.252L34.265,17.316L34.256,17.379L34.24,17.441L34.215,17.5L34.183,17.554L34.145,17.604L34.1,17.648L29.124,21.866L29.072,21.904L29.015,21.934L28.955,21.956L28.893,21.968L28.83,21.972L28.766,21.966L28.705,21.95L28.646,21.926L28.59,21.894L28.54,21.854L28.496,21.807L28.458,21.753L28.428,21.695L28.406,21.633L28.393,21.569L28.388,21.503L28.388,19.324L23.809,19.324L23.809,23.488L26.294,23.488L26.358,23.493L26.421,23.507L26.482,23.531L26.538,23.563L26.59,23.604L26.635,23.651L26.674,23.705L26.705,23.764L26.727,23.827L26.74,23.893L26.744,23.96L26.739,24.027L26.725,24.093L26.702,24.155L26.671,24.214L26.632,24.267L22.413,29.244L22.368,29.29L22.317,29.329L22.261,29.36L22.202,29.383L22.14,29.397L22.077,29.402L22.014,29.398L21.952,29.384L21.892,29.362L21.836,29.331L21.785,29.292L21.74,29.246L17.496,24.317L17.457,24.264L17.425,24.205L17.402,24.143L17.387,24.078L17.381,24.011L17.385,23.944L17.398,23.879L17.419,23.816L17.449,23.756L17.487,23.702L17.532,23.654L17.582,23.613L17.638,23.58L17.698,23.556L17.761,23.541L17.825,23.535L20.279,23.495L20.279,19.324L15.698,19.324L15.698,21.575L15.694,21.641L15.681,21.705L15.659,21.767L15.629,21.825L15.591,21.879L15.547,21.926L15.497,21.966L15.441,21.998L15.382,22.023L15.321,22.038L15.257,22.044L15.194,22.04L15.132,22.028L15.072,22.006L15.015,21.976L14.963,21.938L9.987,17.72L9.942,17.676L9.904,17.626L9.872,17.572L9.847,17.513L9.831,17.452L9.822,17.388L9.822,17.324L9.831,17.261L9.847,17.199L9.872,17.141L9.904,17.086L9.942,17.036L9.987,16.993L14.963,12.774L15.015,12.736L15.072,12.706L15.132,12.684L15.194,12.672L15.257,12.669L15.321,12.675L15.382,12.69L15.441,12.714L15.497,12.746L15.547,12.787L15.591,12.834L15.629,12.887L15.659,12.945L15.681,13.007L15.694,13.072L15.698,13.137L15.698,15.757L20.279,15.757L20.279,11.279L17.856,11.279L17.792,11.274L17.729,11.26L17.669,11.236L17.612,11.204L17.56,11.163L17.515,11.116L17.476,11.062L17.446,11.003L17.424,10.94L17.41,10.874L17.406,10.807L17.411,10.74L17.425,10.675L17.448,10.612L17.479,10.553L17.519,10.5L21.737,5.523L21.783,5.477L21.834,5.438L21.89,5.406L21.95,5.383L22.012,5.369L22.075,5.365L22.139,5.369ZM17.856,10.81L20.73,10.81L20.73,16.226L15.248,16.226L15.248,13.137L10.272,17.356L15.248,21.575L15.248,18.855L20.73,18.855L20.73,23.957L17.832,24.004L22.075,28.933L26.294,23.957L23.358,23.957L23.358,18.855L28.839,18.855L28.839,21.503L33.815,17.284L28.839,13.065L28.839,16.226L23.358,16.226L23.358,10.81L26.294,10.81L22.075,5.834L17.856,10.81Z" style="fill:rgb(217,217,217);fill-opacity:0.301886;"/>
        </g>
        <g transform="matrix(2.47784,0,0,2.35938,42.7489,53.8579)">
            <path d="M20.73,23.957L20.73,18.855L15.248,18.855L15.248,21.575L10.272,17.356L15.248,13.137L15.248,16.226L20.73,16.226L20.73,10.81L17.856,10.81L22.075,5.834L26.294,10.81L23.358,10.81L23.358,16.226L28.839,16.226L28.839,13.065L33.815,17.284L28.839,21.503L28.839,18.855L23.358,18.855L23.358,23.957L26.294,23.957L22.075,28.933L17.832,24.004L20.73,23.957Z" style="fill:rgb(231,231,231);"/>
            <path d="M22.106,5.345L22.168,5.353L22.228,5.37L22.285,5.395L22.339,5.427L22.388,5.466L22.432,5.511L26.651,10.487L26.69,10.54L26.721,10.597L26.745,10.658L26.761,10.722L26.768,10.788L26.766,10.854L26.756,10.919L26.738,10.982L26.712,11.042L26.678,11.098L26.637,11.148L26.59,11.193L26.537,11.23L26.48,11.26L26.42,11.282L26.358,11.295L26.294,11.3L23.833,11.3L23.833,15.736L28.365,15.736L28.365,13.065L28.369,13.001L28.381,12.937L28.402,12.875L28.43,12.817L28.466,12.763L28.508,12.715L28.555,12.673L28.608,12.637L28.665,12.61L28.725,12.59L28.787,12.579L28.85,12.576L28.913,12.582L28.974,12.596L29.033,12.619L29.089,12.649L29.14,12.687L34.116,16.906L34.163,16.951L34.204,17.003L34.237,17.06L34.262,17.121L34.28,17.185L34.288,17.251L34.288,17.317L34.28,17.383L34.262,17.447L34.237,17.508L34.204,17.565L34.163,17.617L34.116,17.663L29.14,21.881L29.089,21.919L29.033,21.95L28.974,21.972L28.913,21.987L28.85,21.993L28.787,21.99L28.725,21.978L28.665,21.959L28.608,21.931L28.555,21.895L28.508,21.853L28.466,21.805L28.43,21.751L28.402,21.693L28.381,21.631L28.369,21.568L28.365,21.503L28.365,19.344L23.833,19.344L23.833,23.467L26.294,23.467L26.358,23.472L26.42,23.485L26.48,23.507L26.537,23.537L26.59,23.574L26.637,23.619L26.678,23.669L26.712,23.725L26.738,23.785L26.756,23.848L26.766,23.914L26.768,23.979L26.761,24.045L26.745,24.109L26.721,24.17L26.69,24.227L26.651,24.28L22.432,29.256L22.388,29.301L22.339,29.34L22.286,29.372L22.229,29.397L22.169,29.413L22.108,29.422L22.046,29.422L21.985,29.414L21.925,29.398L21.868,29.374L21.814,29.342L21.765,29.304L21.721,29.259L17.477,24.329L17.438,24.277L17.407,24.22L17.382,24.16L17.366,24.096L17.358,24.031L17.359,23.965L17.368,23.9L17.386,23.837L17.412,23.777L17.445,23.721L17.485,23.67L17.531,23.625L17.583,23.587L17.639,23.556L17.699,23.533L17.761,23.519L17.825,23.514L20.256,23.475L20.256,19.344L15.722,19.344L15.722,21.575L15.718,21.64L15.706,21.703L15.685,21.765L15.657,21.823L15.621,21.877L15.579,21.925L15.532,21.967L15.479,22.003L15.422,22.031L15.362,22.05L15.3,22.062L15.237,22.065L15.174,22.059L15.113,22.044L15.054,22.022L14.998,21.991L14.947,21.953L9.971,17.735L9.924,17.689L9.883,17.637L9.85,17.58L9.825,17.519L9.807,17.455L9.799,17.389L9.799,17.323L9.807,17.257L9.825,17.193L9.85,17.132L9.883,17.075L9.924,17.023L9.971,16.978L14.947,12.759L14.998,12.721L15.054,12.691L15.113,12.668L15.174,12.654L15.237,12.648L15.3,12.651L15.362,12.662L15.422,12.682L15.479,12.71L15.532,12.745L15.579,12.787L15.621,12.836L15.657,12.889L15.685,12.947L15.706,13.009L15.718,13.073L15.722,13.137L15.722,15.736L20.256,15.736L20.256,11.3L17.856,11.3L17.793,11.295L17.73,11.282L17.67,11.26L17.613,11.23L17.561,11.193L17.513,11.148L17.473,11.098L17.439,11.042L17.412,10.982L17.394,10.919L17.384,10.854L17.383,10.788L17.39,10.722L17.405,10.658L17.429,10.597L17.461,10.54L17.5,10.487L21.718,5.511L21.762,5.466L21.811,5.427L21.865,5.395L21.923,5.37L21.983,5.353L22.044,5.345L22.106,5.345ZM17.856,10.81L20.73,10.81L20.73,16.226L15.248,16.226L15.248,13.137L10.272,17.356L15.248,21.575L15.248,18.855L20.73,18.855L20.73,23.957L17.832,24.004L22.075,28.933L26.294,23.957L23.358,23.957L23.358,18.855L28.839,18.855L28.839,21.503L33.815,17.284L28.839,13.065L28.839,16.226L23.358,16.226L23.358,10.81L26.294,10.81L22.075,5.834L17.856,10.81Z" style="fill:rgb(167,167,167);"/>
        </g>
    </g>
    <defs>
        <radialGradient id="_Radial1" cx="0" cy="0" r="1" gradientUnits="userSpaceOnUse" gradientTransform="matrix(45.9353,1.13623,-1.7774,6.25856,98.359,100.212)"><stop offset="0%" style="stop-color:rgb(79,0,0);stop-opacity:1"/><stop offset="100%" style="stop-color:rgb(80,0,0);stop-opacity:1"/></radialGradient>
    </defs>
</svg>
