<?xml version="1.0" encoding="UTF-8" standalone="no"?>
<!DOCTYPE svg PUBLIC "-//W3C//DTD SVG 1.1//EN" "http://www.w3.org/Graphics/SVG/1.1/DTD/svg11.dtd">
<svg width="100%" height="100%" viewBox="0 0 806 434" version="1.1" xmlns="http://www.w3.org/2000/svg" xmlns:xlink="http://www.w3.org/1999/xlink" xml:space="preserve" style="fill-rule:evenodd;clip-rule:evenodd;stroke-linejoin:round;stroke-miterlimit:1.41421;">
    <g id="Mesa-de-trabajo1" transform="matrix(0.845124,0,0,0.704985,6.06914,5.33281)">
        <rect x="-7.181" y="-7.564" width="952.626" height="615.224" style="fill:none;"/>
        <g transform="matrix(2.0678,0.451039,-0.437432,2.88194,-131.355,-575.264)">
            <path d="M488.683,317.411L488.683,279.724L488.683,263.974L488.683,226.568L504.621,226.568L504.621,317.411L488.683,317.411Z" style="fill:rgb(186,49,41);fill-rule:nonzero;"/>
        </g>
        <g transform="matrix(1.18326,0,0,1.41847,-107.038,-67.9944)">
            <g transform="matrix(1,0,0,0.901402,15.1849,55.6944)">
                <path d="M554.808,274.692L494.059,274.42L493.685,435.712L555.371,435.582L554.808,274.692Z" style="fill:rgb(129,15,209);"/>
            </g>
            <g transform="matrix(6.12323e-17,1,-1.36088,8.33299e-17,1105.51,-244.332)">
                <path d="M552.385,338.724C552.385,338.724 551.323,322.134 526.034,319.089C491.207,314.895 495.526,327.917 495.526,327.917L493.939,439.53L551.401,438.343L552.385,338.724Z" style="fill:rgb(254,180,85);"/>
            </g>
            <g transform="matrix(6.12323e-17,1,-1.36088,8.33299e-17,1105.17,-243.504)">
                <path d="M545.122,337.792C545.122,337.792 540.384,327.245 526.129,325.32C501.006,321.928 501.399,334.541 501.399,334.541L500.415,434.633L546.788,434.03L545.122,337.792Z" style="fill:rgb(254,160,46);fill-opacity:0.5;"/>
            </g>
            <g transform="matrix(6.12323e-17,1,-1.18198,7.23753e-17,1055.89,-378.496)">
                <path d="M510.463,269.343C501.245,263.221 469.358,243.757 469.375,264.316C469.438,338.192 471.333,367.59 475.144,410.321C475.694,416.496 479.582,426.617 482.333,426.366C495.048,425.205 513.285,418.963 521.129,414.213C525.916,411.314 537.645,406.405 534.307,402.17C528.207,394.429 529.77,351.382 526.629,294.295C525.968,282.275 516.967,273.662 510.463,269.343Z" style="fill:url(#_Linear1);"/>
            </g>
            <g transform="matrix(6.12323e-17,1,-1.18198,7.23753e-17,1055.55,-377.668)">
                <path d="M508.675,284.006C499.457,277.884 473.284,257.935 473.302,278.494C473.364,352.37 477.047,367.104 480.858,409.835C481.409,416.01 485.297,426.131 488.047,425.88C500.763,424.72 513.285,418.963 521.129,414.213C525.916,411.314 531.134,407.972 530.176,402.946C525.943,380.734 526.107,373.056 522.255,309.308C521.529,297.29 515.179,288.326 508.675,284.006Z" style="fill:url(#_Linear2);"/>
            </g>
            <g transform="matrix(1,0,0,0.861994,14.2018,-126.626)">
                <path d="M561.328,343.1C562.579,332.918 573.706,326.238 571.214,320.81C564.519,306.229 546.166,266.503 540.9,264.072C531.999,259.963 494.917,295.479 494.13,319.275C493.249,345.918 494.105,437.598 494.105,437.598L560.396,438.588C560.396,438.588 559.19,360.508 561.328,343.1Z" style="fill:url(#_Linear3);"/>
            </g>
            <g transform="matrix(1,0,0,0.861994,13.862,-125.798)">
                <path d="M547.38,343.982C548.631,333.801 559.758,327.121 557.266,321.693C550.572,307.111 541.916,275.338 536.65,272.907C527.749,268.798 501.275,300.765 500.488,324.561C499.607,351.204 498.12,438.365 498.12,438.365L545.502,438.343C545.502,438.343 545.242,361.39 547.38,343.982Z" style="fill:url(#_Linear4);"/>
            </g>
        </g>
        <g transform="matrix(2.0678,0.451039,-0.336451,2.21665,-150.644,-401.872)">
            <path d="M504.621,279.724L488.683,279.724L451.277,279.724L451.277,263.974L542.027,263.974L542.027,279.724L504.621,279.724Z" style="fill:rgb(255,143,41);fill-rule:nonzero;"/>
        </g>
        <g transform="matrix(1.04424,0.667088,-0.556471,1.25182,-6.99224,-346.545)">
            <path d="M243.536,391.343L306.387,354.284C306.387,354.284 308.545,357.356 312.24,359.4C317.057,362.065 394.785,406.976 394.785,406.976C394.785,406.976 399.338,410.248 407.579,406.331C414.04,403.26 484.259,361.914 484.259,361.914C484.259,361.914 493.681,356.951 494.244,354.82C494.57,353.586 498.013,433.07 498.013,433.07C498.013,433.07 498.395,434.915 494.606,437.976C490.816,441.037 412.267,479.067 412.267,479.067C412.267,479.067 399.822,486.195 385.273,477.418C370.724,468.64 252.966,400.782 252.966,400.782C252.966,400.782 244.819,395.806 243.536,391.343Z" style="fill:url(#_Linear5);"/>
        </g>
        <g transform="matrix(0.994114,0.635065,-0.457232,1.02857,-28.9325,-236.605)">
            <path d="M240.947,383.288L306.387,354.284C306.387,354.284 308.545,357.356 312.24,359.4C317.057,362.065 394.785,406.976 394.785,406.976C394.785,406.976 399.338,410.248 407.579,406.331C414.04,403.26 484.259,361.914 484.259,361.914C484.259,361.914 493.681,356.951 494.244,354.82C494.57,353.586 496.922,421.884 496.922,421.884C496.922,421.884 497.305,423.729 493.515,426.79C489.725,429.851 412.267,479.067 412.267,479.067C412.267,479.067 395.035,481.544 380.486,472.767C365.937,463.989 250.377,392.727 250.377,392.727C250.377,392.727 242.23,387.751 240.947,383.288Z" style="fill:url(#_Linear6);"/>
        </g>
        <g transform="matrix(-1.16969,-0.2142,0.178681,-1.4022,664.015,803.814)">
            <path d="M361.192,137.529C361.192,137.529 369.163,132.829 369.167,142.249C369.182,186.071 369.282,191.327 368.722,201.317C368.143,211.651 361.36,212.039 313.839,239.936C304.877,245.197 304.939,248.191 304.93,259.951C304.926,264.897 304.75,343.691 304.75,343.691C304.75,343.691 304.545,348.869 306.136,354.593C307.645,360.025 243.198,391.015 243.198,391.015C243.198,391.015 239.507,388.421 239.607,376.32C239.723,362.285 240.109,225.045 240.109,225.045C240.109,225.045 237.595,207.887 256.932,197.71C279.716,185.719 361.192,137.529 361.192,137.529Z" style="fill:url(#_Linear7);"/>
        </g>
        <g transform="matrix(-0.944713,-0.173001,0.168028,-1.3186,608.55,760.206)">
            <path d="M371.469,132.947C371.469,132.947 387.663,125.012 387.666,134.431C387.681,178.254 385.74,175.289 385.18,185.279C384.601,195.613 332.563,216.657 310.122,232.741C303.145,237.742 304.939,248.976 304.93,259.951C304.926,264.897 304.75,343.691 304.75,343.691C304.75,343.691 304.545,348.869 306.136,354.593C307.645,360.025 243.198,391.015 243.198,391.015C243.198,391.015 239.507,388.421 239.607,376.32C239.723,362.285 240.109,225.045 240.109,225.045C240.109,225.045 237.595,207.887 256.932,197.71C279.716,185.719 371.469,132.947 371.469,132.947Z" style="fill:url(#_Linear8);"/>
        </g>
        <g transform="matrix(1.18326,0,0,1.41847,-88.9444,-95.396)">
            <path d="M213.846,118.603C223.657,119.384 340.948,116.981 349.607,123.108C363.477,132.922 446.8,199.544 446.8,199.544C446.8,199.544 454.102,205.694 454.697,210.299L386.97,237.442C386.97,237.442 385.301,234.079 381.957,231.5C377.597,228.139 332.376,182.12 332.376,182.12L223.855,179.032L176.573,269.575C176.573,269.575 173.957,274.049 172.668,279.849C172.022,282.757 151.766,283.302 132.806,283.168C118.037,284.071 103.705,284.369 103.705,284.369L99.996,282.392C99.996,282.392 97.959,278.367 103.738,267.735C107.977,259.936 175.323,134.469 175.323,134.469C175.323,134.469 186.499,116.428 213.846,118.603Z" style="fill:url(#_Linear9);"/>
        </g>
        <g transform="matrix(-0.043838,1.4175,-1.46968,-0.0653179,660.643,30.2764)">
            <path d="M245.764,240.866C268.547,228.876 361.393,176.334 365.324,185.207C381.72,222.223 386.304,213.113 385.744,223.103C385.165,233.437 323.752,253.564 276.231,281.46C267.269,286.721 273.469,329.275 267.486,333.079C257.783,339.25 223.091,357.445 223.091,357.445C223.091,357.445 226.426,251.044 245.764,240.866Z" style="fill:url(#_Linear10);"/>
        </g>
    </g>
    <defs>
        <linearGradient id="_Linear1" x1="0" y1="0" x2="1" y2="0" gradientUnits="userSpaceOnUse" gradientTransform="matrix(59.0339,0,0,156.583,494.105,359.306)"><stop offset="0%" style="stop-color:rgb(136,9,14);stop-opacity:1"/><stop offset="100%" style="stop-color:rgb(159,0,0);stop-opacity:1"/></linearGradient>
        <linearGradient id="_Linear2" x1="0" y1="0" x2="1" y2="0" gradientUnits="userSpaceOnUse" gradientTransform="matrix(59.0339,0,0,156.583,494.105,359.306)"><stop offset="0%" style="stop-color:rgb(241,45,52);stop-opacity:0.395"/><stop offset="100%" style="stop-color:rgb(255,30,30);stop-opacity:0.395"/></linearGradient>
        <linearGradient id="_Linear3" x1="0" y1="0" x2="1" y2="0" gradientUnits="userSpaceOnUse" gradientTransform="matrix(0.799481,150.535,-129.76,0.927478,513.959,280.607)"><stop offset="0%" style="stop-color:rgb(226,115,17);stop-opacity:1"/><stop offset="100%" style="stop-color:rgb(255,136,9);stop-opacity:1"/></linearGradient>
        <linearGradient id="_Linear4" x1="0" y1="0" x2="1" y2="0" gradientUnits="userSpaceOnUse" gradientTransform="matrix(0.799481,150.535,-129.76,0.927478,513.959,280.607)"><stop offset="0%" style="stop-color:rgb(243,167,100);stop-opacity:0.5"/><stop offset="100%" style="stop-color:rgb(255,168,81);stop-opacity:0.5"/></linearGradient>
        <linearGradient id="_Linear5" x1="0" y1="0" x2="1" y2="0" gradientUnits="userSpaceOnUse" gradientTransform="matrix(313.474,0,0,127.513,243.536,418.041)"><stop offset="0%" style="stop-color:rgb(255,191,119);stop-opacity:1"/><stop offset="100%" style="stop-color:rgb(250,155,2);stop-opacity:1"/></linearGradient>
        <linearGradient id="_Linear6" x1="0" y1="0" x2="1" y2="0" gradientUnits="userSpaceOnUse" gradientTransform="matrix(313.474,0,0,127.513,243.536,418.041)"><stop offset="0%" style="stop-color:rgb(255,151,31);stop-opacity:0.404698"/><stop offset="100%" style="stop-color:rgb(192,119,1);stop-opacity:0.404698"/></linearGradient>
        <linearGradient id="_Linear7" x1="0" y1="0" x2="1" y2="0" gradientUnits="userSpaceOnUse" gradientTransform="matrix(-57.8334,189.751,-189.751,-57.8334,304.47,183.348)"><stop offset="0%" style="stop-color:rgb(134,0,211);stop-opacity:1"/><stop offset="100%" style="stop-color:rgb(118,52,205);stop-opacity:1"/></linearGradient>
        <linearGradient id="_Linear8" x1="0" y1="0" x2="1" y2="0" gradientUnits="userSpaceOnUse" gradientTransform="matrix(-57.8334,189.751,-189.751,-57.8334,304.47,183.348)"><stop offset="0%" style="stop-color:rgb(184,61,255);stop-opacity:0.227855"/><stop offset="100%" style="stop-color:rgb(164,120,222);stop-opacity:0.227855"/></linearGradient>
        <linearGradient id="_Linear9" x1="0" y1="0" x2="1" y2="0" gradientUnits="userSpaceOnUse" gradientTransform="matrix(-158.466,139.705,-519.925,-42.5801,277.379,131.473)"><stop offset="0%" style="stop-color:rgb(141,0,30);stop-opacity:1"/><stop offset="100%" style="stop-color:rgb(172,52,37);stop-opacity:1"/></linearGradient>
        <linearGradient id="_Linear10" x1="0" y1="0" x2="1" y2="0" gradientUnits="userSpaceOnUse" gradientTransform="matrix(-57.8334,189.751,-189.751,-57.8334,304.47,183.348)"><stop offset="0%" style="stop-color:rgb(255,154,12);stop-opacity:1"/><stop offset="100%" style="stop-color:rgb(253,124,0);stop-opacity:1"/></linearGradient>
    </defs>
</svg>
